{"title":"SweetAuditions ~ Stacey Fillmore - MILF enjois to be abused","uid":10792093,"size":470506979,"categoryP":"porn","categoryS":"movie_clips","magnet":"?xt=urn:btih:410c1f6854e94e6b22def6bc4803a093e56d092d&amp;dn=SweetAuditions+%7E+Stacey+Fillmore+-+MILF+enjois+to+be+abused&amp;tr=udp%3A%2F%2Ftracker.openbittorrent.com%3A80&amp;tr=udp%3A%2F%2Fopen.demonii.com%3A1337&amp;tr=udp%3A%2F%2Ftracker.coppersurfer.tk%3A6969&amp;tr=udp%3A%2F%2Fexodus.desync.com%3A6969","seeders":4,"leechers":0,"uploader":"ThousandPeers","files":21,"time":1408259407,"description":"Format                                   : Windows Media\nFile size                                : 416 MiB\nDuration                                 : 48mn 10s\nOverall bit rate mode                    : Constant\nOverall bit rate                         : 1 207 Kbps\nMaximum Overall bit rate                 : 1 213 Kbps\nMovie name                               :  \nPerformer                                : SweetAuditions.com\nEncoded date                             : UTC 2005-12-26 19:58:32.834\nCopyright                                : Sweet Entertainment Group (2005)\nComment                                  :  \nRating                                   : Adults Only\n\n\nVideo\n\nID                                       : 2\nFormat                                   : VC-1\nFormat profile                           : Main\nCodec ID                                 : WMV3\nCodec ID/Info                            : Windows Media Video 9\nCodec ID/Hint                            : WMV3\nDescription of the codec                 : Windows Media Video 9 - Professional\nDuration                                 : 48mn 10s\nBit rate mode                            : Constant\nBit rate                                 : 1 104 Kbps\nWidth                                    : 640 pixels\nHeight                                   : 480 pixels\nDisplay aspect ratio                     : 4:3\nFrame rate                               : 29.970 fps\nBit depth                                : 8 bits\nScan type                                : Progressive\nCompression mode                         : Lossy\nBits/(Pixel*Frame)                       : 0.120\nStream size                              : 380 MiB (91%)\n\n\nAudio\n\nID                                       : 1\nFormat                                   : WMA\nFormat version                           : Version 2\nCodec ID                                 : 161\nCodec ID/Info                            : Windows Media Audio\nDescription of the codec                 : Windows Media Audio 9.1 -  96 kbps, 44 kHz, stereo 1-pass CBR\nDuration                                 : 48mn 10s\nBit rate mode                            : Constant\nBit rate                                 : 96.0 Kbps\nChannel(s)                               : 2 channels\nSampling rate                            : 44.1 KHz\nBit depth                                : 16 bits\nStream size                              : 33.1 MiB (8%)\n","torrent":{"xt":"urn:btih:410c1f6854e94e6b22def6bc4803a093e56d092d","amp;dn":"SweetAuditions+%7E+Stacey+Fillmore+-+MILF+enjois+to+be+abused","amp;tr":["udp%3A%2F%2Ftracker.openbittorrent.com%3A80","udp%3A%2F%2Fopen.demonii.com%3A1337","udp%3A%2F%2Ftracker.coppersurfer.tk%3A6969","udp%3A%2F%2Fexodus.desync.com%3A6969"],"infoHash":"410c1f6854e94e6b22def6bc4803a093e56d092d","infoHashBuffer":{"type":"Buffer","data":[65,12,31,104,84,233,78,107,34,222,246,188,72,3,160,147,229,109,9,45]},"announce":[],"urlList":[]}}